<svg width="50" height="50" viewBox="0 0 50 50" fill="none" xmlns="http://www.w3.org/2000/svg">
<path d="M25.9844 0.988332C25.6055 0.992239 25.2618 1.21099 25.1016 1.55474L11.168 23.4454C11.1485 23.4766 11.125 23.5118 11.1055 23.5508C11.0899 23.5782 11.0782 23.6094 11.0664 23.6407C11.043 23.7032 11.0235 23.7696 11.0157 23.8321C11.0039 23.8985 10.9961 23.9649 11 24.0313C11 24.0352 11 24.0352 11 24.0352C11 24.0665 11.0039 24.1016 11.0079 24.1329C11.0079 24.1407 11.0118 24.1446 11.0118 24.1524C11.0196 24.2032 11.0313 24.25 11.0469 24.2969C11.0508 24.3086 11.0508 24.3165 11.0547 24.3243C11.0547 24.3282 11.0547 24.3282 11.0547 24.3282C11.0664 24.3594 11.0782 24.3907 11.0938 24.418C11.0938 24.4219 11.0938 24.4219 11.0938 24.4219C11.1055 24.4532 11.1211 24.4805 11.1407 24.5079C11.1563 24.5391 11.1719 24.5665 11.1954 24.5899C11.2032 24.6055 11.211 24.6172 11.2227 24.625C11.2344 24.6407 11.2461 24.6563 11.2579 24.668C11.2813 24.6954 11.3008 24.7188 11.3282 24.7383C11.3282 24.7422 11.3282 24.7422 11.3282 24.7422C11.375 24.7852 11.4297 24.8243 11.4883 24.8594C11.4922 24.8633 11.5 24.8672 11.5039 24.8672C11.5039 24.8711 11.5039 24.8711 11.5079 24.8711L25.3789 32.7969C25.7422 33.086 26.25 33.086 26.6133 32.8008L40.4766 24.879C40.4805 24.879 40.4883 24.875 40.4961 24.8672C40.5196 24.8555 40.5391 24.8438 40.5625 24.8282C40.5664 24.8243 40.5743 24.8204 40.5821 24.8125C40.586 24.8125 40.5899 24.8086 40.5938 24.8008C40.6133 24.7891 40.6329 24.7735 40.6563 24.7579C40.6563 24.7579 40.6563 24.754 40.6602 24.754C40.6641 24.75 40.668 24.7461 40.6719 24.7422C40.6914 24.7266 40.711 24.7032 40.7305 24.6836C40.7539 24.6602 40.7735 24.6329 40.7969 24.6055C40.8164 24.5821 40.8321 24.5547 40.8516 24.5274C40.8516 24.5274 40.8516 24.5274 40.8516 24.5235C40.8516 24.5235 40.8516 24.5196 40.8555 24.5196C40.8711 24.4922 40.8868 24.4688 40.9024 24.4375C40.9102 24.4141 40.9219 24.3907 40.9336 24.3672C40.9336 24.3594 40.9375 24.3516 40.9414 24.3438C40.9414 24.3399 40.9454 24.3321 40.9493 24.3204C40.9532 24.3008 40.961 24.2774 40.9688 24.254V24.25C40.9688 24.2461 40.9688 24.2461 40.9727 24.2422C40.9766 24.2149 40.9844 24.1836 40.9883 24.1524C40.9922 24.129 40.9961 24.1016 41 24.0743C41 24.0743 41 24.0704 41 24.0665C41 24.0391 41 24.0079 41 23.9766C41 23.9571 40.9961 23.9375 40.9961 23.918C40.9961 23.8985 40.9922 23.875 40.9922 23.8555C40.9922 23.8555 40.9922 23.8555 40.9922 23.8516C40.9883 23.8516 40.9883 23.8477 40.9883 23.8438C40.9844 23.8165 40.9766 23.7891 40.9727 23.7579C40.9727 23.7579 40.9727 23.7579 40.9727 23.754C40.9649 23.7305 40.9571 23.7071 40.9493 23.6797C40.9454 23.6758 40.9454 23.668 40.9414 23.6602C40.9375 23.6524 40.9336 23.6446 40.9336 23.6368C40.9219 23.6133 40.9141 23.5938 40.9063 23.5704C40.9024 23.5704 40.9024 23.5704 40.9024 23.5665V23.5625C40.8868 23.5352 40.8711 23.5079 40.8555 23.4805C40.8516 23.4766 40.8516 23.4727 40.8477 23.4688C40.8477 23.4688 40.8438 23.4649 40.8438 23.461L40.8125 23.4141L26.8985 1.54693C26.7266 1.19927 26.3711 0.98052 25.9844 0.984426V0.988332ZM25 5.43755V17.3399L14.5821 21.8047L25 5.43755ZM27 5.43755L37.418 21.8047L27 17.3399V5.43755ZM25 19.5157V30.2774L14.2422 24.129L25 19.5157ZM27 19.5157L37.7579 24.129L27 30.2735V19.5157ZM40.0079 28C39.8321 27.9961 39.6563 28.043 39.5039 28.129L26 35.8477L12.4961 28.129C12.3516 28.0469 12.1875 28.004 12.0196 28C11.6368 27.9922 11.2852 28.2032 11.1133 28.5391C10.9375 28.879 10.9688 29.2891 11.1954 29.5938L25.1289 48.504C25.3047 48.8165 25.6368 49.0118 26 49.0118C26.3594 49.0118 26.6914 48.8204 26.8672 48.504L40.8047 29.5938C41.0274 29.293 41.0625 28.8868 40.8946 28.5508C40.7266 28.2149 40.3829 28 40.0079 28ZM15.6133 32.2188L25 37.5821V44.9571L15.6133 32.2188ZM36.3868 32.2188L27 44.9571V37.5821L36.3868 32.2188Z" fill="black"/>
</svg>
