<svg width="1440" height="1024" viewBox="0 0 1440 1024" fill="none" xmlns="http://www.w3.org/2000/svg">
<g clip-path="url(#clip0_967_196)">
<rect width="1440" height="1024" fill="black"/>
<rect x="464" y="371" width="512" height="78.6028" rx="39.3014" fill="white"/>
<path d="M931.279 393.347C931.006 393.349 930.758 393.507 930.642 393.755L920.594 409.541C920.58 409.564 920.563 409.589 920.549 409.617C920.538 409.637 920.529 409.659 920.521 409.682C920.504 409.727 920.49 409.775 920.484 409.82C920.476 409.868 920.47 409.916 920.473 409.964C920.473 409.966 920.473 409.966 920.473 409.966C920.473 409.989 920.476 410.014 920.479 410.037C920.479 410.042 920.482 410.045 920.482 410.051C920.487 410.087 920.496 410.121 920.507 410.155C920.51 410.164 920.51 410.169 920.513 410.175C920.513 410.178 920.513 410.178 920.513 410.178C920.521 410.2 920.529 410.223 920.541 410.242C920.541 410.245 920.541 410.245 920.541 410.245C920.549 410.268 920.56 410.287 920.575 410.307C920.586 410.33 920.597 410.349 920.614 410.366C920.62 410.378 920.625 410.386 920.634 410.392C920.642 410.403 920.651 410.414 920.659 410.423C920.676 410.442 920.69 410.459 920.71 410.473C920.71 410.476 920.71 410.476 920.71 410.476C920.744 410.507 920.783 410.535 920.825 410.561C920.828 410.564 920.834 410.566 920.837 410.566C920.837 410.569 920.837 410.569 920.839 410.569L930.842 416.285C931.104 416.493 931.47 416.493 931.732 416.287L941.729 410.575C941.732 410.575 941.738 410.572 941.744 410.566C941.76 410.558 941.775 410.549 941.791 410.538C941.794 410.535 941.8 410.533 941.806 410.527C941.808 410.527 941.811 410.524 941.814 410.518C941.828 410.51 941.842 410.499 941.859 410.487C941.859 410.487 941.859 410.485 941.862 410.485C941.865 410.482 941.868 410.479 941.87 410.476C941.884 410.465 941.898 410.448 941.913 410.434C941.929 410.417 941.944 410.397 941.96 410.378C941.975 410.361 941.986 410.341 942 410.321C942 410.321 942 410.321 942 410.318C942 410.318 942 410.316 942.003 410.316C942.014 410.296 942.025 410.279 942.037 410.256C942.042 410.24 942.051 410.223 942.059 410.206C942.059 410.2 942.062 410.194 942.065 410.189C942.065 410.186 942.068 410.18 942.07 410.172C942.073 410.158 942.079 410.141 942.084 410.124V410.121C942.084 410.118 942.084 410.118 942.087 410.116C942.09 410.096 942.096 410.073 942.098 410.051C942.101 410.034 942.104 410.014 942.107 409.994C942.107 409.994 942.107 409.992 942.107 409.989C942.107 409.969 942.107 409.947 942.107 409.924C942.107 409.91 942.104 409.896 942.104 409.882C942.104 409.868 942.101 409.851 942.101 409.837C942.101 409.837 942.101 409.837 942.101 409.834C942.098 409.834 942.098 409.831 942.098 409.828C942.096 409.809 942.09 409.789 942.087 409.766C942.087 409.766 942.087 409.766 942.087 409.764C942.082 409.747 942.076 409.73 942.07 409.71C942.068 409.707 942.068 409.702 942.065 409.696C942.062 409.69 942.059 409.685 942.059 409.679C942.051 409.662 942.045 409.648 942.039 409.631C942.037 409.631 942.037 409.631 942.037 409.628V409.625C942.025 409.606 942.014 409.586 942.003 409.566C942 409.564 942 409.561 941.997 409.558C941.997 409.558 941.994 409.555 941.994 409.552L941.972 409.518L931.938 393.749C931.814 393.499 931.558 393.341 931.279 393.344V393.347ZM930.569 396.555V405.138L923.056 408.358L930.569 396.555ZM932.011 396.555L939.524 408.358L932.011 405.138V396.555ZM930.569 406.707V414.468L922.811 410.034L930.569 406.707ZM932.011 406.707L939.769 410.034L932.011 414.465V406.707ZM941.391 412.825C941.265 412.823 941.138 412.856 941.028 412.918L931.29 418.485L921.552 412.918C921.448 412.859 921.329 412.828 921.208 412.825C920.932 412.82 920.679 412.972 920.555 413.214C920.428 413.459 920.451 413.755 920.614 413.975L930.662 427.611C930.789 427.837 931.028 427.978 931.29 427.978C931.549 427.978 931.789 427.84 931.915 427.611L941.966 413.975C942.127 413.758 942.152 413.465 942.031 413.223C941.91 412.98 941.662 412.825 941.391 412.825ZM923.8 415.868L930.569 419.735V425.054L923.8 415.868ZM938.78 415.868L932.011 425.054V419.735L938.78 415.868Z" fill="black"/>
<path d="M854.882 484.91H840.402V471.37H854.682C856.942 471.37 857.762 472.45 857.762 474.43V475.23C857.762 477.53 856.502 477.91 855.682 477.99C856.582 478.07 857.962 478.49 857.962 480.65V481.85C857.962 483.83 857.142 484.91 854.882 484.91ZM855.562 481.27V480.47C855.562 479.35 854.802 478.93 853.742 478.93H842.822V482.89H854.022C855.142 482.89 855.562 482.33 855.562 481.27ZM855.362 475.47V474.99C855.362 473.95 854.942 473.39 853.822 473.39H842.822V477.05H853.622C854.662 477.05 855.362 476.67 855.362 475.47ZM877.469 484.91H863.109C860.849 484.91 860.029 483.83 860.029 481.85V480.11C860.029 478.13 860.849 477.05 863.109 477.05H875.069V476.01C875.069 474.39 874.369 473.59 872.909 473.59H860.369V471.37H873.409C876.189 471.37 877.469 472.83 877.469 475.77V484.91ZM875.069 482.89V478.91H863.969C862.849 478.91 862.429 479.47 862.429 480.51V481.27C862.429 482.33 862.849 482.89 863.969 482.89H875.069ZM894.259 484.91H883.659C880.899 484.91 879.599 483.45 879.599 480.51V471.37H882.019V480.27C882.019 481.87 882.699 482.69 884.159 482.69H894.259V484.91ZM913.25 484.91H898.89C896.63 484.91 895.81 483.83 895.81 481.85V480.11C895.81 478.13 896.63 477.05 898.89 477.05H910.85V476.01C910.85 474.39 910.15 473.59 908.69 473.59H896.15V471.37H909.19C911.97 471.37 913.25 472.83 913.25 475.77V484.91ZM910.85 482.89V478.91H899.75C898.63 478.91 898.21 479.47 898.21 480.51V481.27C898.21 482.33 898.63 482.89 899.75 482.89H910.85ZM932.56 484.91H930.16V476.01C930.16 474.41 929.46 473.59 928 473.59H917.88V484.91H915.46V471.37H928.5C931.26 471.37 932.56 472.85 932.56 475.77V484.91ZM950.877 484.91H938.717C935.917 484.91 934.617 483.45 934.617 480.51V475.77C934.617 472.83 935.917 471.37 938.717 471.37H950.877V473.59H939.217C937.717 473.59 937.037 474.39 937.037 476.01V480.27C937.037 481.87 937.717 482.69 939.217 482.69H950.877V484.91ZM969.979 484.91H956.959C954.159 484.91 952.859 483.45 952.859 480.51V474.43C952.859 472.45 953.699 471.37 955.979 471.37H967.239C969.519 471.37 970.319 472.45 970.319 474.43V476.25C970.319 478.23 969.519 479.31 967.239 479.31H955.279V480.27C955.279 481.87 955.959 482.69 957.459 482.69H969.979V484.91ZM967.919 475.81V474.99C967.919 473.95 967.499 473.39 966.379 473.39H956.839C955.719 473.39 955.279 473.95 955.279 474.99V477.43H966.379C967.499 477.43 967.919 476.85 967.919 475.81ZM974.851 484.91H972.531V481.35H974.851V484.91ZM974.851 477.05H972.531V473.49H974.851V477.05ZM841.933 508.91H839.613V506.27H826.973V504.41L838.733 495.37H841.933V504.49H843.233V506.27H841.933V508.91ZM839.613 504.49V497.23L829.993 504.49H839.613ZM847.253 508.91H844.933V505.35H847.253V508.91ZM851.472 499.01V499.53C851.472 500.57 851.912 501.13 853.012 501.13H863.252V499.01C863.252 497.95 862.812 497.39 861.692 497.39H853.012C851.912 497.39 851.472 497.95 851.472 499.01ZM852.152 495.37H862.552C864.832 495.37 865.672 496.45 865.672 498.43V504.51C865.672 507.45 864.372 508.91 861.572 508.91H850.072V506.69H861.072C862.572 506.69 863.252 505.89 863.252 504.27V503.01H852.152C849.892 503.01 849.072 501.93 849.072 499.95V498.43C849.072 496.45 849.892 495.37 852.152 495.37ZM870.144 499.01V499.53C870.144 500.57 870.584 501.13 871.684 501.13H881.924V499.01C881.924 497.95 881.484 497.39 880.364 497.39H871.684C870.584 497.39 870.144 497.95 870.144 499.01ZM870.824 495.37H881.224C883.504 495.37 884.344 496.45 884.344 498.43V504.51C884.344 507.45 883.044 508.91 880.244 508.91H868.744V506.69H879.744C881.244 506.69 881.924 505.89 881.924 504.27V503.01H870.824C868.564 503.01 867.744 501.93 867.744 499.95V498.43C867.744 496.45 868.564 495.37 870.824 495.37ZM899.996 508.91H889.436C887.176 508.91 886.356 507.83 886.356 505.85V504.71C886.356 502.55 887.716 502.11 888.636 502.03C887.816 501.95 886.556 501.59 886.556 499.29V498.43C886.556 496.45 887.376 495.37 889.636 495.37H899.796C902.056 495.37 902.876 496.45 902.876 498.43V499.29C902.876 501.59 901.616 501.95 900.796 502.03C901.716 502.11 903.076 502.55 903.076 504.71V505.85C903.076 507.83 902.256 508.91 899.996 508.91ZM898.856 502.97H890.576C889.496 502.97 888.756 503.39 888.756 504.53V505.27C888.756 506.33 889.176 506.89 890.296 506.89H899.136C900.256 506.89 900.676 506.33 900.676 505.27V504.53C900.676 503.39 899.936 502.97 898.856 502.97ZM898.936 497.39H890.496C889.376 497.39 888.956 497.95 888.956 498.99V499.51C888.956 500.71 889.656 501.11 890.696 501.11H898.736C899.776 501.11 900.476 500.71 900.476 499.51V498.99C900.476 497.95 900.056 497.39 898.936 497.39ZM934.25 508.91H931.85V500.01C931.85 498.41 931.15 497.59 929.69 497.59H924.61V508.91H922.21V497.59H914.99V508.91H912.57V495.37H930.19C932.95 495.37 934.25 496.85 934.25 499.77V508.91ZM953.836 508.91H939.476C937.216 508.91 936.396 507.83 936.396 505.85V504.11C936.396 502.13 937.216 501.05 939.476 501.05H951.436V500.01C951.436 498.39 950.736 497.59 949.276 497.59H936.736V495.37H949.776C952.556 495.37 953.836 496.83 953.836 499.77V508.91ZM951.436 506.89V502.91H940.336C939.216 502.91 938.796 503.47 938.796 504.51V505.27C938.796 506.33 939.216 506.89 940.336 506.89H951.436ZM975.626 508.91H972.086L965.226 503.37L958.406 508.91H955.346L963.766 501.99L955.686 495.37H959.086L965.506 500.57L971.906 495.37H974.966L966.966 501.95L975.626 508.91Z" fill="white"/>
<rect x="464" y="546.955" width="512" height="78.6028" rx="39.3014" fill="white"/>
<path d="M925.586 601.54C934.553 601.461 959.446 563.896 959.525 572.863C959.603 581.831 952.397 589.164 943.43 589.242C934.462 589.321 937.469 573.084 927.042 573.175C921.57 573.507 916.618 601.618 925.586 601.54Z" fill="url(#paint0_linear_967_196)"/>
<rect x="815.189" y="651.519" width="160.811" height="59.1324" rx="29.5662" fill="url(#paint1_linear_967_196)"/>
<path d="M881.137 686.988H866.657V673.448H880.937C883.197 673.448 884.017 674.528 884.017 676.508V677.308C884.017 679.608 882.757 679.988 881.937 680.068C882.837 680.148 884.217 680.568 884.217 682.728V683.928C884.217 685.908 883.397 686.988 881.137 686.988ZM881.817 683.348V682.548C881.817 681.428 881.057 681.008 879.997 681.008H869.077V684.968H880.277C881.397 684.968 881.817 684.408 881.817 683.348ZM881.617 677.548V677.068C881.617 676.028 881.197 675.468 880.077 675.468H869.077V679.128H879.877C880.917 679.128 881.617 678.748 881.617 677.548ZM903.264 686.988H890.344C887.604 686.988 886.284 685.508 886.284 682.588V673.448H888.724V682.348C888.724 683.948 889.424 684.768 890.864 684.768H900.884V673.448H903.264V686.988ZM916.043 686.988H913.623V682.368L904.663 673.448H907.783L914.863 680.508L921.923 673.448H924.923L916.043 682.408V686.988Z" fill="black"/>
<line y1="138.5" x2="1440" y2="138.5" stroke="#40FFFF"/>
<path d="M55.181 29.9997C45.6905 39.2394 57.4785 104.748 48.2389 95.2572C38.9992 85.7667 39.2025 70.583 48.693 61.3433C58.1835 52.1036 71.552 72.5023 82.5877 61.7583C88.0883 55.8176 64.6714 20.7601 55.181 29.9997Z" fill="url(#paint2_linear_967_196)"/>
<path d="M1106.68 77.2233C1106.68 78.7581 1108.17 80 1110 80C1111.83 80 1113.32 78.7581 1113.32 77.2233H1106.68ZM1110 56.2791C1114.6 56.2791 1118.33 59.4047 1118.33 63.2558V73.0233H1101.67V63.2558C1101.67 59.4047 1105.4 56.2791 1110 56.2791ZM1110 50C1108.62 50 1107.5 50.9349 1107.5 52.093V53.7256C1102.27 54.6744 1098.33 58.5814 1098.33 63.2558V71.6279L1095 74.4186V75.814H1125V74.4186L1121.67 71.6279V63.2558C1121.67 58.5814 1117.73 54.6744 1112.5 53.7256V52.093C1112.5 50.9349 1111.38 50 1110 50ZM1111.67 59.0698H1108.33V63.2558H1103.33V66.0465H1108.33V70.2326H1111.67V66.0465H1116.67V63.2558H1111.67V59.0698Z" fill="white"/>
<path d="M925.24 74H922.12V64.78C922.12 63.84 921.64 63.34 920.68 63.34H918.5V60.46H921.36C924 60.46 925.24 61.82 925.24 64.48V74ZM940.16 74H931.38C928.54 74 927.22 72.54 927.22 69.6V64.86C927.22 61.92 928.54 60.46 931.38 60.46H940.16C942.98 60.46 944.3 61.92 944.3 64.86V69.6C944.3 72.54 942.98 74 940.16 74ZM941.16 69.28V65.18C941.16 63.94 940.62 63.34 939.5 63.34H932.06C930.9 63.34 930.38 63.94 930.38 65.18V69.28C930.38 70.48 930.9 71.1 932.06 71.1H939.5C940.62 71.1 941.16 70.48 941.16 69.28ZM948.056 75.8H945.876L946.436 70.44H949.516L948.056 75.8ZM964.778 74H951.638V71.38H963.658C964.478 71.38 964.818 70.74 964.818 69.94V69.5C964.818 68.76 964.498 68.3 963.658 68.3H951.718V60.46H967.578V63.08H954.658V65.98H964.778C967.098 65.98 967.938 67.08 967.938 69.06V70.94C967.938 72.92 967.098 74 964.778 74ZM982.778 74H973.998C971.158 74 969.838 72.54 969.838 69.6V64.86C969.838 61.92 971.158 60.46 973.998 60.46H982.778C985.598 60.46 986.918 61.92 986.918 64.86V69.6C986.918 72.54 985.598 74 982.778 74ZM983.778 69.28V65.18C983.778 63.94 983.238 63.34 982.118 63.34H974.678C973.518 63.34 972.998 63.94 972.998 65.18V69.28C972.998 70.48 973.518 71.1 974.678 71.1H982.118C983.238 71.1 983.778 70.48 983.778 69.28ZM1002.5 70.16V69.62C1002.5 68.84 1002.16 68.44 1001.34 68.44H991.884V70.16C991.884 70.96 992.204 71.38 993.044 71.38H1001.34C1002.16 71.38 1002.5 70.96 1002.5 70.16ZM1002.5 74H991.904C989.584 74 988.724 72.92 988.724 70.94V64.86C988.724 61.92 990.044 60.46 992.884 60.46H1005.22V63.34H993.564C992.404 63.34 991.884 63.94 991.884 65.18V66.16H1002.5C1004.8 66.16 1005.62 67.24 1005.62 69.22V70.94C1005.62 72.92 1004.8 74 1002.5 74Z" fill="url(#paint3_linear_967_196)"/>
<path d="M692.2 70H679.06V67.38H691.08C691.9 67.38 692.24 66.74 692.24 65.94V65.5C692.24 64.76 691.92 64.3 691.08 64.3H679.14V56.46H695V59.08H682.08V61.98H692.2C694.52 61.98 695.36 63.08 695.36 65.06V66.94C695.36 68.92 694.52 70 692.2 70ZM710.199 70H701.419C698.579 70 697.259 68.54 697.259 65.6V60.86C697.259 57.92 698.579 56.46 701.419 56.46H710.199C713.019 56.46 714.339 57.92 714.339 60.86V65.6C714.339 68.54 713.019 70 710.199 70ZM711.199 65.28V61.18C711.199 59.94 710.659 59.34 709.539 59.34H702.099C700.939 59.34 700.419 59.94 700.419 61.18V65.28C700.419 66.48 700.939 67.1 702.099 67.1H709.539C710.659 67.1 711.199 66.48 711.199 65.28ZM729.086 70H720.306C717.466 70 716.146 68.54 716.146 65.6V60.86C716.146 57.92 717.466 56.46 720.306 56.46H729.086C731.906 56.46 733.226 57.92 733.226 60.86V65.6C733.226 68.54 731.906 70 729.086 70ZM730.086 65.28V61.18C730.086 59.94 729.546 59.34 728.426 59.34H720.986C719.826 59.34 719.306 59.94 719.306 61.18V65.28C719.306 66.48 719.826 67.1 720.986 67.1H728.426C729.546 67.1 730.086 66.48 730.086 65.28Z" fill="url(#paint4_linear_967_196)"/>
<path d="M397.672 71H393.928V58.208H385.48V54.752H406.168V58.208H397.672V71ZM423.193 71H415.273L406.825 54.752H411.313L418.009 67.952H420.601L427.201 54.752H431.545L423.193 71ZM450.838 71H437.902C434.518 71 432.934 69.248 432.934 65.72V54.752H436.702V65.336C436.702 66.776 437.35 67.52 438.694 67.52H450.838V71Z" fill="white"/>
<path d="M1282.28 71H1275.81C1273.71 71 1272.74 69.905 1272.74 67.7V64.145C1272.74 61.94 1273.71 60.845 1275.81 60.845H1282.28C1284.36 60.845 1285.32 61.94 1285.32 64.145V67.7C1285.32 69.905 1284.36 71 1282.28 71ZM1283.52 67.52V64.325C1283.52 63.11 1283 62.51 1281.9 62.51H1276.19C1275.06 62.51 1274.55 63.11 1274.55 64.325V67.52C1274.55 68.72 1275.06 69.335 1276.19 69.335H1281.9C1283 69.335 1283.52 68.72 1283.52 67.52ZM1300.87 71H1298.22L1293.07 66.845L1287.96 71H1285.66L1291.98 65.81L1285.92 60.845H1288.47L1293.28 64.745L1298.08 60.845H1300.38L1294.38 65.78L1300.87 71ZM1311.17 71H1301.8V69.485H1310.53C1311.37 69.485 1311.68 69.065 1311.68 68.27V67.715C1311.68 66.86 1311.13 66.545 1310.32 66.545H1302.13V65.15H1310.23C1311.01 65.15 1311.53 64.85 1311.53 63.95V63.56C1311.53 62.78 1311.22 62.36 1310.38 62.36H1301.83V60.845H1311.02C1312.72 60.845 1313.33 61.655 1313.33 63.14V63.785C1313.33 65.51 1312.39 65.78 1311.77 65.84C1312.46 65.9 1313.48 66.23 1313.48 67.85V68.705C1313.48 70.19 1312.87 71 1311.17 71ZM1319.52 71H1317.72V63.875C1317.72 62.99 1317.29 62.51 1316.37 62.51H1314.78V60.845H1316.75C1318.64 60.845 1319.52 61.82 1319.52 63.71V71ZM1333.33 71H1324.21C1322.11 71 1321.13 69.905 1321.13 67.7V64.145C1321.13 61.94 1322.11 60.845 1324.21 60.845H1333.33V62.51H1324.58C1323.46 62.51 1322.95 63.11 1322.95 64.325V67.52C1322.95 68.72 1323.46 69.335 1324.58 69.335H1333.33V71Z" fill="white"/>
<rect x="1246.5" y="42.5" width="96" height="43" stroke="url(#paint5_linear_967_196)" stroke-width="3"/>
<rect x="1256" y="60" width="11" height="11" rx="5.5" fill="#05FF00"/>
<circle cx="877" cy="62" r="25" fill="#233447"/>
<path d="M875.132 50.8259C871.684 54.1821 875.966 77.9773 872.61 74.53C869.254 71.0827 869.328 65.5673 872.775 62.2111C876.222 58.8549 881.078 66.2645 885.087 62.3618C887.085 60.2039 878.579 47.4697 875.132 50.8259Z" fill="url(#paint6_linear_967_196)"/>
<circle cx="1114.5" cy="55.5" r="4.5" fill="#FF0000"/>
<circle cx="635" cy="62" r="25" fill="#233447"/>
<path d="M625.708 71.5453C631.409 71.4955 647.233 47.6151 647.283 53.3157C647.333 59.0163 642.752 63.678 637.052 63.7278C631.351 63.7776 633.263 53.4561 626.634 53.5141C623.156 53.725 620.008 71.5951 625.708 71.5453Z" fill="url(#paint7_linear_967_196)"/>
<path fill-rule="evenodd" clip-rule="evenodd" d="M1182 77.1875C1184.14 77.1906 1186.24 76.6279 1188.09 75.5563V71.5625C1188.09 70.4436 1187.65 69.3706 1186.86 68.5794C1186.07 67.7882 1184.99 67.3438 1183.88 67.3438H1180.12C1179.01 67.3438 1177.93 67.7882 1177.14 68.5794C1176.35 69.3706 1175.91 70.4436 1175.91 71.5625V75.5563C1177.76 76.6279 1179.86 77.1906 1182 77.1875ZM1190.91 71.5625V73.3194C1192.53 71.5837 1193.61 69.4121 1194.01 67.0716C1194.41 64.731 1194.12 62.3235 1193.18 60.1449C1192.23 57.9664 1190.67 56.1118 1188.68 54.8091C1186.7 53.5064 1184.38 52.8124 1182 52.8124C1179.62 52.8124 1177.3 53.5064 1175.32 54.8091C1173.33 56.1118 1171.77 57.9664 1170.82 60.1449C1169.88 62.3235 1169.59 64.731 1169.99 67.0716C1170.39 69.4121 1171.47 71.5837 1173.09 73.3194V71.5625C1173.09 70.1129 1173.54 68.6987 1174.38 67.5133C1175.21 66.3279 1176.39 65.4291 1177.76 64.94C1177.05 64.1256 1176.59 63.1248 1176.43 62.0568C1176.28 60.9889 1176.43 59.8989 1176.88 58.9169C1177.33 57.9349 1178.05 57.1024 1178.96 56.5186C1179.86 55.9348 1180.92 55.6244 1182 55.6244C1183.08 55.6244 1184.14 55.9348 1185.04 56.5186C1185.95 57.1024 1186.67 57.9349 1187.12 58.9169C1187.57 59.8989 1187.72 60.9889 1187.57 62.0568C1187.41 63.1248 1186.95 64.1256 1186.24 64.94C1187.61 65.4291 1188.79 66.3279 1189.62 67.5133C1190.46 68.6987 1190.91 70.1129 1190.91 71.5625ZM1182 80C1185.98 80 1189.79 78.4196 1192.61 75.6066C1195.42 72.7936 1197 68.9782 1197 65C1197 61.0218 1195.42 57.2064 1192.61 54.3934C1189.79 51.5804 1185.98 50 1182 50C1178.02 50 1174.21 51.5804 1171.39 54.3934C1168.58 57.2064 1167 61.0218 1167 65C1167 68.9782 1168.58 72.7936 1171.39 75.6066C1174.21 78.4196 1178.02 80 1182 80ZM1184.81 61.25C1184.81 61.9959 1184.52 62.7113 1183.99 63.2387C1183.46 63.7662 1182.75 64.0625 1182 64.0625C1181.25 64.0625 1180.54 63.7662 1180.01 63.2387C1179.48 62.7113 1179.19 61.9959 1179.19 61.25C1179.19 60.5041 1179.48 59.7887 1180.01 59.2613C1180.54 58.7338 1181.25 58.4375 1182 58.4375C1182.75 58.4375 1183.46 58.7338 1183.99 59.2613C1184.52 59.7887 1184.81 60.5041 1184.81 61.25Z" fill="white"/>
</g>
<defs>
<linearGradient id="paint0_linear_967_196" x1="950.016" y1="630.511" x2="925.866" y2="536.693" gradientUnits="userSpaceOnUse">
<stop stop-color="#FF56F9"/>
<stop offset="0.9999" stop-color="#40FFFF"/>
<stop offset="1" stop-color="#009BFF"/>
</linearGradient>
<linearGradient id="paint1_linear_967_196" x1="728.053" y1="632.409" x2="1007.37" y2="980.698" gradientUnits="userSpaceOnUse">
<stop stop-color="#FF5AF9"/>
<stop offset="0.536458" stop-color="#40FFFF"/>
<stop offset="0.979167" stop-color="#009BFF"/>
</linearGradient>
<linearGradient id="paint2_linear_967_196" x1="-0.472451" y1="24.0237" x2="121.092" y2="99.4929" gradientUnits="userSpaceOnUse">
<stop stop-color="#FF56F9"/>
<stop offset="0.9999" stop-color="#40FFFF"/>
<stop offset="1" stop-color="#009BFF"/>
</linearGradient>
<linearGradient id="paint3_linear_967_196" x1="914.205" y1="22.7392" x2="1041.94" y2="104.066" gradientUnits="userSpaceOnUse">
<stop stop-color="#FF5AF9"/>
<stop offset="0.9999" stop-color="#6DD8FE" stop-opacity="0.234375"/>
<stop offset="1" stop-color="#40FFFF" stop-opacity="0"/>
</linearGradient>
<linearGradient id="paint4_linear_967_196" x1="675.57" y1="18.7392" x2="774.148" y2="58.9362" gradientUnits="userSpaceOnUse">
<stop stop-color="#FF5AF9"/>
<stop offset="0.9999" stop-color="#6DD8FE" stop-opacity="0.234375"/>
<stop offset="1" stop-color="#40FFFF" stop-opacity="0"/>
</linearGradient>
<linearGradient id="paint5_linear_967_196" x1="1239.34" y1="30.0897" x2="1376.87" y2="63.6765" gradientUnits="userSpaceOnUse">
<stop stop-color="#FF5AF9"/>
<stop offset="0.9999" stop-color="#009BFF"/>
<stop offset="1" stop-color="#40FFFF"/>
</linearGradient>
<linearGradient id="paint6_linear_967_196" x1="854.916" y1="48.6551" x2="899.073" y2="76.0685" gradientUnits="userSpaceOnUse">
<stop stop-color="#FF56F9"/>
<stop offset="0.9999" stop-color="#40FFFF"/>
<stop offset="1" stop-color="#009BFF"/>
</linearGradient>
<linearGradient id="paint7_linear_967_196" x1="641.238" y1="89.9624" x2="625.886" y2="30.3223" gradientUnits="userSpaceOnUse">
<stop stop-color="#FF56F9"/>
<stop offset="0.9999" stop-color="#40FFFF"/>
<stop offset="1" stop-color="#009BFF"/>
</linearGradient>
<clipPath id="clip0_967_196">
<rect width="1440" height="1024" fill="white"/>
</clipPath>
</defs>
</svg>
