<svg width="30" height="30" viewBox="0 0 30 30" fill="none" xmlns="http://www.w3.org/2000/svg">
<path d="M11.6833 27.2233C11.6833 28.7581 13.1667 30 15 30C16.8333 30 18.3167 28.7581 18.3167 27.2233H11.6833ZM15 6.27907C19.6 6.27907 23.3333 9.40465 23.3333 13.2558V23.0233H6.66667V13.2558C6.66667 9.40465 10.4 6.27907 15 6.27907ZM15 0C13.6167 0 12.5 0.934884 12.5 2.09302V3.72558C7.26667 4.67442 3.33333 8.5814 3.33333 13.2558V21.6279L0 24.4186V25.814H30V24.4186L26.6667 21.6279V13.2558C26.6667 8.5814 22.7333 4.67442 17.5 3.72558V2.09302C17.5 0.934884 16.3833 0 15 0ZM16.6667 9.06977H13.3333V13.2558H8.33333V16.0465H13.3333V20.2326H16.6667V16.0465H21.6667V13.2558H16.6667V9.06977Z" fill="white"/>
</svg>
