<svg width="36" height="30" viewBox="0 0 36 30" fill="none" xmlns="http://www.w3.org/2000/svg">
<g clip-path="url(#clip0_936_124)">
<path d="M10.9784 22.668C8.58718 22.6229 6.5037 21.2417 5.43246 19.213C6.19532 19.2306 6.959 19.1362 7.69961 18.9308L7.64966 17.4733C5.06652 16.9444 3.03073 14.8262 2.58177 12.1466C3.34672 12.4219 4.15152 12.5766 4.96827 12.6027L7.54476 12.685L5.41456 11.2333C3.68797 10.0567 2.54777 8.04543 2.54777 5.7594C2.54777 4.94842 2.69133 4.17274 2.95347 3.45687C6.59834 7.53219 11.7579 10.1817 17.532 10.4772L18.5222 10.5279L18.3015 9.56124C18.1918 9.0807 18.1344 8.57803 18.1344 8.05965C18.1344 4.41721 21.0274 1.48877 24.5653 1.48877C26.4104 1.48877 28.0796 2.2822 29.2549 3.55872L29.5407 3.86912L29.9543 3.78605C30.8911 3.59792 31.8065 3.32026 32.6886 2.95776C32.183 3.6512 31.5466 4.23932 30.818 4.68452L31.2992 6.06907C31.9245 5.99341 32.5436 5.87813 33.153 5.72423C32.5865 6.32222 31.9684 6.86906 31.3053 7.35778L30.9832 7.59514L31.001 7.9948C31.0144 8.2973 31.021 8.60192 31.021 8.90869C31.021 18.2751 24.0356 28.9888 11.3406 28.9888C8.48636 28.9888 5.77667 28.3652 3.32935 27.2475C6.37331 26.9886 9.1631 25.8169 11.4324 24.0038L13.0553 22.7072L10.9784 22.668Z" stroke="white" stroke-width="1.5"/>
</g>
<defs>
<clipPath id="clip0_936_124">
<rect width="35" height="29" fill="white" transform="translate(0.333374 0.73877)"/>
</clipPath>
</defs>
</svg>
