<svg width="325" height="71" viewBox="0 0 325 71" fill="none" xmlns="http://www.w3.org/2000/svg">
<g clip-path="url(#clip0_909_465)">
<path d="M136.576 44.9909H110.08V53.0549H102.544V20.5589H136.576C142.144 20.5589 144.112 23.1509 144.112 27.9029V37.0229C144.112 42.6389 142.144 44.9909 136.576 44.9909ZM136.576 35.7749V29.6789C136.576 27.8069 135.808 26.8469 133.84 26.8469H110.08V38.8469H133.84C135.808 38.8469 136.576 37.8869 136.576 35.7749ZM183.488 53.0549H157.616C150.848 53.0549 147.68 49.5509 147.68 42.4949V20.5589H155.216V41.7269C155.216 44.6069 156.512 46.0949 159.2 46.0949H183.488V53.0549ZM219.364 53.0549H196.66C189.844 53.0549 186.676 49.5509 186.676 42.4949V31.1189C186.676 24.0629 189.844 20.5589 196.66 20.5589H219.364C226.18 20.5589 229.3 24.0629 229.3 31.1189V42.4949C229.3 49.5509 226.18 53.0549 219.364 53.0549ZM221.764 41.7269V31.8869C221.764 28.9109 220.516 27.4709 217.732 27.4709H198.292C195.508 27.4709 194.26 28.9109 194.26 31.8869V41.7269C194.26 44.6069 195.508 46.0949 198.292 46.0949H217.732C220.516 46.0949 221.764 44.6069 221.764 41.7269ZM256.828 53.0549H249.34V27.4709H232.444V20.5589H273.82V27.4709H256.828V53.0549ZM310.75 53.0549H277.102V46.7669H308.014C309.982 46.7669 310.798 45.7589 310.798 43.8389V42.3029C310.798 40.5269 310.03 39.4229 308.062 39.4229H284.638C279.118 39.4229 277.102 36.7829 277.102 32.0309V27.9029C277.102 23.1509 279.118 20.5589 284.638 20.5589H317.518V26.8469H287.374C285.358 26.8469 284.59 27.8069 284.59 29.6789V30.9749C284.59 32.7989 285.358 33.8549 287.374 33.8549H310.75C316.318 33.8549 318.334 36.4949 318.334 41.2469V45.7109C318.334 50.4629 316.318 53.0549 310.75 53.0549Z" fill="white"/>
<path d="M14.2751 0.371454C0.226309 4.86414 18.3468 76.2539 7.06436 70.6896C4.78108 68.2576 2.98221 65.3829 1.77048 62.2297C0.558755 59.0766 -0.0420815 55.7068 0.00228999 52.3128C0.0466615 48.9188 0.735372 45.5671 2.02908 42.4492C3.32279 39.3313 5.19616 36.5082 7.54218 34.1412C13.9436 27.6808 25.9919 43.2949 38.0905 37.5766C55.8017 30.348 23.9892 -3.91734 14.2751 0.371454Z" fill="url(#paint0_linear_909_465)"/>
</g>
<defs>
<linearGradient id="paint0_linear_909_465" x1="-46.9587" y1="-3.39813" x2="83.0927" y2="74.4574" gradientUnits="userSpaceOnUse">
<stop stop-color="#FF56F9"/>
<stop offset="0.9999" stop-color="#40FFFF"/>
<stop offset="1" stop-color="#009BFF"/>
</linearGradient>
<clipPath id="clip0_909_465">
<rect width="325" height="70.9971" fill="white" transform="translate(0 0.00146484)"/>
</clipPath>
</defs>
</svg>
