<svg width="34" height="35" viewBox="0 0 34 35" fill="none" xmlns="http://www.w3.org/2000/svg">
<g clip-path="url(#clip0_936_126)">
<g clip-path="url(#clip1_936_126)">
<path fill-rule="evenodd" clip-rule="evenodd" d="M16.9904 2.71967C8.742 2.71967 2.06426 9.62876 2.06426 18.1373C2.06426 24.3848 5.66468 29.761 10.8467 32.1793C11.3889 32.4328 11.9188 32.3323 12.3329 32.0093C12.5619 31.8238 12.7465 31.5857 12.8723 31.3136C12.998 31.0415 13.0614 30.7429 13.0576 30.441V29.6335L11.209 29.3728C11.1953 29.3709 11.1817 29.3686 11.1682 29.3658C10.1492 29.1589 9.46127 28.7863 8.95724 28.2494C8.53358 27.7975 8.27475 27.2563 8.05543 26.7973L7.97915 26.6373C7.77644 26.1975 7.55508 25.7674 7.31573 25.3481C7.13183 25.0449 6.98879 24.8891 6.84712 24.7913C6.48748 24.5434 6.14147 24.1227 6.14147 23.5971C6.14024 23.4458 6.17138 23.2962 6.23264 23.1589C6.2939 23.0217 6.38374 22.9004 6.49566 22.8038C6.70688 22.6298 6.97012 22.5386 7.23944 22.5459C7.54186 22.5459 7.82657 22.6423 8.0636 22.7528C8.30608 22.8661 8.5472 23.0163 8.77197 23.1721C9.3196 23.5518 9.85905 24.0008 10.3154 24.5548C10.7908 25.1299 11.1273 25.4954 11.6341 25.5705C12.0509 25.6328 12.4759 25.6343 12.807 25.6187C12.853 25.3461 12.9288 25.0799 13.0331 24.8253C12.6288 24.7272 12.23 24.6062 11.8384 24.4627C10.9475 24.134 9.95441 23.6226 9.2869 22.8477C8.55401 21.9948 8.10039 21.2341 7.84701 20.3444C7.60044 19.4774 7.55957 18.5382 7.55957 17.3822C7.55957 15.6113 8.29655 14.1196 8.84962 13.3277C8.63713 12.6344 8.48441 11.9227 8.39327 11.2013C8.33291 10.7463 8.33336 10.2848 8.39463 9.82992C8.46274 9.41484 8.63302 8.90484 9.0812 8.59742C9.51304 8.29851 10.0198 8.31126 10.4148 8.38776C10.8249 8.46851 11.2513 8.64559 11.6436 8.84817C12.2825 9.17684 12.9173 9.61601 13.3927 9.98859C14.2128 9.73784 15.6636 9.41484 16.9754 9.38509H17.0054C18.3186 9.41484 19.704 9.73784 20.5037 9.98717C20.9805 9.61601 21.6139 9.17542 22.2514 8.84817C22.6438 8.64559 23.0688 8.46851 23.4802 8.38776C23.8752 8.31126 24.382 8.29851 24.8152 8.59601C25.262 8.90484 25.4336 9.41484 25.5004 9.82992C25.5699 10.262 25.5535 10.7451 25.5004 11.2013C25.4097 11.9227 25.2574 12.6343 25.0454 13.3277C25.5985 14.121 26.3355 15.6128 26.3355 17.3822C26.3355 18.5382 26.2946 19.4774 26.0494 20.343C25.7946 21.2355 25.341 21.9948 24.6081 22.8477C23.9406 23.6226 22.9475 24.134 22.0566 24.4627C21.5837 24.6355 21.1005 24.7761 20.6099 24.8834C20.7775 25.4104 20.8374 25.8368 20.8374 26.0819V30.4594C20.8374 31.1253 21.1357 31.6933 21.5594 32.0248C21.9708 32.3493 22.4994 32.4498 23.0415 32.2033C28.2726 29.8063 31.9152 24.4159 31.9152 18.1358C31.9152 9.62876 25.2402 2.71967 16.9904 2.71967ZM13.5521 27.0368C13.1979 27.0892 13.5507 27.0368 13.5507 27.0368H13.5467L13.5358 27.0396L13.4963 27.0453C13.2939 27.07 13.0908 27.0875 12.8873 27.0977C12.4025 27.124 11.9164 27.1036 11.4352 27.0368C10.3576 26.8781 9.70239 26.0848 9.27873 25.5691L9.23786 25.5209C9.09935 25.3538 8.95055 25.1962 8.79241 25.0492C8.93272 25.3183 9.07848 25.6187 9.23514 25.9417L9.24876 25.97L9.31824 26.1173C9.55663 26.6103 9.71329 26.939 9.97348 27.2138C10.2269 27.483 10.6219 27.7437 11.4202 27.908L13.8641 28.2523C14.0347 28.2763 14.1913 28.3639 14.3045 28.4989C14.4177 28.6338 14.48 28.807 14.4798 28.9861V30.441C14.4798 31.5743 13.969 32.5844 13.1857 33.1964C12.7744 33.5232 12.2852 33.7271 11.7707 33.786C11.2563 33.8449 10.7361 33.7566 10.2664 33.5308C4.59668 30.8858 0.643433 24.9968 0.643433 18.1373C0.643433 8.79859 7.96825 1.23926 16.9904 1.23926C26.0126 1.23926 33.3374 8.79859 33.3374 18.1373C33.3374 25.0322 29.3338 30.9368 23.615 33.5591C23.1449 33.7807 22.6256 33.8652 22.1129 33.8035C21.6001 33.7419 21.1131 33.5365 20.7039 33.2092C20.2994 32.8853 19.9725 32.4683 19.7489 31.991C19.5253 31.5137 19.4111 30.9889 19.4152 30.458V26.0805C19.4152 25.9813 19.3485 25.409 18.9766 24.6398C18.9253 24.5331 18.8994 24.4151 18.9012 24.2959C18.903 24.1766 18.9324 24.0595 18.9869 23.9546C19.0415 23.8497 19.1195 23.7599 19.2145 23.693C19.3094 23.6261 19.4185 23.584 19.5324 23.5702C20.2308 23.4791 20.9177 23.3101 21.5812 23.0658C22.3904 22.7683 23.1165 22.3603 23.5483 21.8588C24.1899 21.1137 24.51 20.5413 24.6858 19.9223C24.8683 19.2805 24.9146 18.5339 24.9146 17.3822C24.9146 15.7658 24.0973 14.4072 23.7213 13.9694C23.636 13.8705 23.5778 13.7495 23.5528 13.6192C23.5279 13.4888 23.5372 13.3539 23.5796 13.2285C23.8218 12.5147 23.9929 11.7771 24.0905 11.027C24.1341 10.6374 24.1368 10.3116 24.0986 10.0764C24.0901 9.99044 24.0651 9.90711 24.0251 9.83134C23.9313 9.81446 23.8351 9.81881 23.7431 9.84409C23.5115 9.88942 23.2159 10.0028 22.8808 10.1756C22.2133 10.5184 21.5185 11.0256 21.0881 11.3883C20.9931 11.4684 20.8799 11.5215 20.7593 11.5426C20.6388 11.5637 20.515 11.552 20.4001 11.5087C19.2972 11.1335 18.1499 10.9175 16.9904 10.8669C15.6186 10.9009 14.0357 11.3061 13.4949 11.5087C13.38 11.552 13.2562 11.5637 13.1357 11.5426C13.0151 11.5215 12.9019 11.4684 12.807 11.3883C12.2503 10.9222 11.6496 10.5159 11.0142 10.1756C10.7414 10.0266 10.4511 9.91515 10.1506 9.84409C10.059 9.81902 9.96329 9.81467 9.86995 9.83134C9.82991 9.90709 9.80489 9.99043 9.79639 10.0764C9.75824 10.3116 9.76097 10.6374 9.80456 11.027C9.90273 11.7769 10.0739 12.5146 10.3154 13.2285C10.4012 13.4835 10.3481 13.7668 10.1737 13.9694C9.79775 14.4072 8.9804 15.7658 8.9804 17.3822C8.9804 18.5325 9.02671 19.2805 9.20926 19.9223C9.38635 20.5413 9.70511 21.1123 10.3454 21.8588C10.7786 22.3603 11.5033 22.7683 12.3138 23.0658C12.9769 23.3099 13.6634 23.479 14.3613 23.5702C14.5049 23.5862 14.6404 23.6473 14.7497 23.7454C14.8591 23.8434 14.9372 23.9738 14.9736 24.1192C15.0099 24.2645 15.0029 24.4179 14.9534 24.559C14.9039 24.7001 14.8142 24.8221 14.6964 24.9089C14.4716 25.0761 14.3231 25.3764 14.24 25.7235C14.1971 25.9022 14.1716 26.0849 14.1638 26.2689V26.2958C14.1655 26.4755 14.1044 26.6496 13.9919 26.7859C13.8794 26.9222 13.7231 27.0113 13.5521 27.0368V27.0368Z" fill="white"/>
</g>
</g>
<defs>
<clipPath id="clip0_936_126">
<rect width="32.694" height="34" fill="white" transform="translate(0.819702 0.23877)"/>
</clipPath>
<clipPath id="clip1_936_126">
<rect width="32.694" height="34" fill="white" transform="translate(0.819702 0.23877)"/>
</clipPath>
</defs>
</svg>
