<svg width="296" height="99" viewBox="0 0 296 99" fill="none" xmlns="http://www.w3.org/2000/svg">
<g clip-path="url(#clip0_936_123)">
<path d="M141.101 52.28H119.021V59H112.741V31.92H141.101C145.741 31.92 147.381 34.08 147.381 38.04V45.64C147.381 50.32 145.741 52.28 141.101 52.28ZM141.101 44.6V39.52C141.101 37.96 140.461 37.16 138.821 37.16H119.021V47.16H138.821C140.461 47.16 141.101 46.36 141.101 44.6ZM180.194 59H158.634C152.994 59 150.354 56.08 150.354 50.2V31.92H156.634V49.56C156.634 51.96 157.714 53.2 159.954 53.2H180.194V59ZM210.09 59H191.17C185.49 59 182.85 56.08 182.85 50.2V40.72C182.85 34.84 185.49 31.92 191.17 31.92H210.09C215.77 31.92 218.37 34.84 218.37 40.72V50.2C218.37 56.08 215.77 59 210.09 59ZM212.09 49.56V41.36C212.09 38.88 211.05 37.68 208.73 37.68H192.53C190.21 37.68 189.17 38.88 189.17 41.36V49.56C189.17 51.96 190.21 53.2 192.53 53.2H208.73C211.05 53.2 212.09 51.96 212.09 49.56ZM241.311 59H235.071V37.68H220.991V31.92H255.471V37.68H241.311V59ZM286.246 59H258.206V53.76H283.966C285.606 53.76 286.286 52.92 286.286 51.32V50.04C286.286 48.56 285.646 47.64 284.006 47.64H264.486C259.886 47.64 258.206 45.44 258.206 41.48V38.04C258.206 34.08 259.886 31.92 264.486 31.92H291.886V37.16H266.766C265.086 37.16 264.446 37.96 264.446 39.52V40.6C264.446 42.12 265.086 43 266.766 43H286.246C290.886 43 292.566 45.2 292.566 49.16V52.88C292.566 56.84 290.886 59 286.246 59Z" fill="white"/>
<path d="M23.4496 0.511955C0.86383 6.72849 29.9956 105.511 11.8571 97.8114C8.1864 94.4461 5.2944 90.4684 3.34635 86.1054C1.39829 81.7424 0.432347 77.0796 0.503682 72.3833C0.575016 67.6871 1.68223 63.0493 3.76209 58.7351C5.84195 54.4208 8.8537 50.5145 12.6253 47.2393C22.9166 38.3 42.2863 59.9053 61.7369 51.9927C90.2107 41.9905 39.0666 -5.42246 23.4496 0.511955Z" fill="url(#paint0_linear_936_123)"/>
</g>
<defs>
<linearGradient id="paint0_linear_936_123" x1="-74.9941" y1="-4.70402" x2="116.415" y2="128.43" gradientUnits="userSpaceOnUse">
<stop stop-color="#FF56F9"/>
<stop offset="0.9999" stop-color="#40FFFF"/>
<stop offset="1" stop-color="#009BFF"/>
</linearGradient>
<clipPath id="clip0_936_123">
<rect width="294.745" height="98.2389" fill="white" transform="translate(0.5)"/>
</clipPath>
</defs>
</svg>
