<svg width="41" height="29" viewBox="0 0 41 29" fill="none" xmlns="http://www.w3.org/2000/svg">
<g clip-path="url(#clip0_936_125)">
<path d="M7.31592 21.917C17.4357 26.4331 23.5075 26.4331 33.6272 21.917" stroke="white" stroke-width="1.5" stroke-linecap="round" stroke-linejoin="round"/>
<path d="M27.5555 24.6259L29.5794 28.2388C29.5794 28.2388 38.0213 25.8398 40.7112 21.9162C40.7112 20.1097 41.7839 7.19903 34.6393 2.94845C31.6034 1.142 26.5435 0.23877 26.5435 0.23877L24.5196 3.85167H20.4717" stroke="white" stroke-width="1.5" stroke-linecap="round" stroke-linejoin="round"/>
<path d="M13.4444 24.6259L11.4205 28.2388C11.4205 28.2388 2.9786 25.8398 0.288776 21.9162C0.288776 20.1097 -0.783917 7.19903 6.36062 2.94845C9.39654 1.142 14.4564 0.23877 14.4564 0.23877L16.4804 3.85167H20.5283" stroke="white" stroke-width="1.5" stroke-linecap="round" stroke-linejoin="round"/>
<path d="M13.3876 18.303C11.7118 18.303 10.3517 16.6862 10.3517 14.6901C10.3517 12.6939 11.7118 11.0771 13.3876 11.0771C15.0634 11.0771 16.4235 12.6939 16.4235 14.6901C16.4235 16.6862 15.0634 18.303 13.3876 18.303ZM27.5552 18.303C25.8794 18.303 24.5193 16.6862 24.5193 14.6901C24.5193 12.6939 25.8794 11.0771 27.5552 11.0771C29.2311 11.0771 30.5912 12.6939 30.5912 14.6901C30.5912 16.6862 29.2311 18.303 27.5552 18.303Z" stroke="white" stroke-width="1.5" stroke-linecap="round" stroke-linejoin="round"/>
</g>
<defs>
<clipPath id="clip0_936_125">
<rect width="40.5367" height="28" fill="white" transform="translate(0.231567 0.23877)"/>
</clipPath>
</defs>
</svg>
